<svg xmlns="http://www.w3.org/2000/svg" viewBox="0 0 24 24" width="24" height="24">
  <path fill="#0073aa" d="M12.158 12.786l-2.698-7.84h-.051l-2.672 7.84h5.421zm-7.66 4.965a9.927 9.927 0 0 1-1.636-5.551c0-2.316.79-4.448 2.115-6.14l4.57 12.87-5.049-1.18zm9.529 1.18l3.18-9.066a9.928 9.928 0 0 1 .475 3.018 9.957 9.957 0 0 1-3.655 6.048zm2.63-10.741c.217.4.382.864.382 1.34 0 .617-.183 1.155-.417 1.834l-.845 2.502-1.393-4.225c.783-.05 1.547-.117 2.273-1.45zm-1.89-1.884c.334 0 .567.3.567.633 0 .433-.3.867-.717 1.167-.483.333-1.05.516-1.583.516a2.022 2.022 0 0 1-1.483-.65L9.176 19.34a9.947 9.947 0 0 1-2.07-.638l5.228-15.656c.717-.234 1.35-.35 1.95-.35h.025c1.033 0 1.95.433 2.45 1.12zM12 0C5.373 0 0 5.373 0 12s5.373 12 12 12 12-5.373 12-12S18.627 0 12 0z"/>
</svg>
